<mxfile host="65bd71144e">
    <diagram id="ViO5h6NEpqv9rZMeyB2z" name="Page-1">
        <mxGraphModel dx="935" dy="805" grid="1" gridSize="10" guides="1" tooltips="1" connect="1" arrows="1" fold="1" page="1" pageScale="1" pageWidth="850" pageHeight="1100" math="0" shadow="0">
            <root>
                <mxCell id="0"/>
                <mxCell id="1" parent="0"/>
                <mxCell id="89" style="edgeStyle=none;html=1;exitX=0.5;exitY=1;exitDx=0;exitDy=0;exitPerimeter=0;entryX=0.5;entryY=0;entryDx=0;entryDy=0;entryPerimeter=0;" parent="1" source="3" target="29" edge="1">
                    <mxGeometry relative="1" as="geometry"/>
                </mxCell>
                <mxCell id="3" value="start" style="strokeWidth=2;html=1;shape=mxgraph.flowchart.terminator;whiteSpace=wrap;" parent="1" vertex="1">
                    <mxGeometry x="35" y="10" width="90" height="30" as="geometry"/>
                </mxCell>
                <mxCell id="4" style="edgeStyle=none;html=1;exitX=0.5;exitY=1;exitDx=0;exitDy=0;entryX=0.5;entryY=0;entryDx=0;entryDy=0;entryPerimeter=0;" parent="1" source="5" target="8" edge="1">
                    <mxGeometry relative="1" as="geometry">
                        <Array as="points">
                            <mxPoint x="87" y="380"/>
                        </Array>
                    </mxGeometry>
                </mxCell>
                <mxCell id="5" value="Select" style="html=1;strokeWidth=2;shape=manualInput;whiteSpace=wrap;rounded=1;size=26;arcSize=11;" parent="1" vertex="1">
                    <mxGeometry x="42" y="290" width="90" height="60" as="geometry"/>
                </mxCell>
                <mxCell id="6" style="edgeStyle=none;html=1;exitX=1;exitY=0.5;exitDx=0;exitDy=0;exitPerimeter=0;entryX=0;entryY=0.5;entryDx=0;entryDy=0;entryPerimeter=0;" parent="1" source="8" target="11" edge="1">
                    <mxGeometry relative="1" as="geometry"/>
                </mxCell>
                <mxCell id="66" style="edgeStyle=none;html=1;exitX=0.5;exitY=1;exitDx=0;exitDy=0;exitPerimeter=0;entryX=0.552;entryY=0.123;entryDx=0;entryDy=0;entryPerimeter=0;" parent="1" source="8" target="31" edge="1">
                    <mxGeometry relative="1" as="geometry"/>
                </mxCell>
                <mxCell id="8" value="Select = 1" style="strokeWidth=2;html=1;shape=mxgraph.flowchart.decision;whiteSpace=wrap;" parent="1" vertex="1">
                    <mxGeometry x="37" y="430" width="100" height="100" as="geometry"/>
                </mxCell>
                <mxCell id="9" style="edgeStyle=none;html=1;exitX=1;exitY=0.5;exitDx=0;exitDy=0;exitPerimeter=0;entryX=0;entryY=0.5;entryDx=0;entryDy=0;entryPerimeter=0;" parent="1" source="11" target="17" edge="1">
                    <mxGeometry relative="1" as="geometry"/>
                </mxCell>
                <mxCell id="70" style="edgeStyle=none;html=1;exitX=0.5;exitY=1;exitDx=0;exitDy=0;exitPerimeter=0;entryX=0.569;entryY=0.167;entryDx=0;entryDy=0;entryPerimeter=0;" parent="1" source="11" target="41" edge="1">
                    <mxGeometry relative="1" as="geometry"/>
                </mxCell>
                <mxCell id="11" value="Select = 2" style="strokeWidth=2;html=1;shape=mxgraph.flowchart.decision;whiteSpace=wrap;" parent="1" vertex="1">
                    <mxGeometry x="197" y="430" width="100" height="100" as="geometry"/>
                </mxCell>
                <mxCell id="51" style="edgeStyle=none;html=1;exitX=1;exitY=0.5;exitDx=0;exitDy=0;exitPerimeter=0;entryX=0.5;entryY=0;entryDx=0;entryDy=0;entryPerimeter=0;" parent="1" source="14" target="50" edge="1">
                    <mxGeometry relative="1" as="geometry">
                        <Array as="points">
                            <mxPoint x="680" y="480"/>
                        </Array>
                    </mxGeometry>
                </mxCell>
                <mxCell id="79" style="edgeStyle=none;html=1;exitX=0.5;exitY=1;exitDx=0;exitDy=0;exitPerimeter=0;entryX=0.474;entryY=0.201;entryDx=0;entryDy=0;entryPerimeter=0;" parent="1" source="14" target="47" edge="1">
                    <mxGeometry relative="1" as="geometry"/>
                </mxCell>
                <mxCell id="14" value="Select = 4" style="strokeWidth=2;html=1;shape=mxgraph.flowchart.decision;whiteSpace=wrap;" parent="1" vertex="1">
                    <mxGeometry x="477" y="430" width="100" height="100" as="geometry"/>
                </mxCell>
                <mxCell id="15" style="edgeStyle=none;html=1;exitX=1;exitY=0.5;exitDx=0;exitDy=0;exitPerimeter=0;entryX=0;entryY=0.5;entryDx=0;entryDy=0;entryPerimeter=0;" parent="1" source="17" target="14" edge="1">
                    <mxGeometry relative="1" as="geometry"/>
                </mxCell>
                <mxCell id="75" style="edgeStyle=none;html=1;exitX=0.5;exitY=1;exitDx=0;exitDy=0;exitPerimeter=0;entryX=0.479;entryY=0.184;entryDx=0;entryDy=0;entryPerimeter=0;" parent="1" source="17" target="44" edge="1">
                    <mxGeometry relative="1" as="geometry"/>
                </mxCell>
                <mxCell id="17" value="Select = 3" style="strokeWidth=2;html=1;shape=mxgraph.flowchart.decision;whiteSpace=wrap;" parent="1" vertex="1">
                    <mxGeometry x="337" y="430" width="100" height="100" as="geometry"/>
                </mxCell>
                <mxCell id="21" value="True" style="text;html=1;resizable=0;autosize=1;align=center;verticalAlign=middle;points=[];fillColor=#60a917;strokeColor=#2D7600;rounded=0;fontColor=#ffffff;" parent="1" vertex="1">
                    <mxGeometry x="42" y="390" width="40" height="20" as="geometry"/>
                </mxCell>
                <mxCell id="22" value="false" style="text;html=1;resizable=0;autosize=1;align=center;verticalAlign=middle;points=[];fillColor=#e51400;strokeColor=#B20000;rounded=0;fontColor=#ffffff;" parent="1" vertex="1">
                    <mxGeometry x="690" y="620" width="40" height="20" as="geometry"/>
                </mxCell>
                <mxCell id="23" value="false" style="text;html=1;resizable=0;autosize=1;align=center;verticalAlign=middle;points=[];fillColor=#e51400;strokeColor=#B20000;rounded=0;fontColor=#ffffff;" parent="1" vertex="1">
                    <mxGeometry x="290" y="460" width="40" height="20" as="geometry"/>
                </mxCell>
                <mxCell id="24" value="false" style="text;html=1;resizable=0;autosize=1;align=center;verticalAlign=middle;points=[];fillColor=#e51400;strokeColor=#B20000;rounded=0;fontColor=#ffffff;" parent="1" vertex="1">
                    <mxGeometry x="436" y="454" width="40" height="20" as="geometry"/>
                </mxCell>
                <mxCell id="25" value="false" style="text;html=1;resizable=0;autosize=1;align=center;verticalAlign=middle;points=[];fillColor=#e51400;strokeColor=#B20000;rounded=0;fontColor=#ffffff;" parent="1" vertex="1">
                    <mxGeometry x="139" y="456" width="40" height="20" as="geometry"/>
                </mxCell>
                <mxCell id="90" style="edgeStyle=none;html=1;exitX=0.5;exitY=1;exitDx=0;exitDy=0;exitPerimeter=0;entryX=0.5;entryY=0;entryDx=0;entryDy=0;entryPerimeter=0;" parent="1" source="29" target="36" edge="1">
                    <mxGeometry relative="1" as="geometry"/>
                </mxCell>
                <mxCell id="29" value="Please select operation" style="strokeWidth=2;html=1;shape=mxgraph.flowchart.display;whiteSpace=wrap;" parent="1" vertex="1">
                    <mxGeometry x="30" y="90" width="100" height="60" as="geometry"/>
                </mxCell>
                <mxCell id="67" style="edgeStyle=none;html=1;exitX=0.5;exitY=1;exitDx=0;exitDy=0;entryX=0.497;entryY=0.171;entryDx=0;entryDy=0;entryPerimeter=0;" parent="1" source="31" target="33" edge="1">
                    <mxGeometry relative="1" as="geometry"/>
                </mxCell>
                <mxCell id="31" value="Num 1" style="html=1;strokeWidth=2;shape=manualInput;whiteSpace=wrap;rounded=1;size=26;arcSize=11;" parent="1" vertex="1">
                    <mxGeometry x="32" y="560" width="100" height="60" as="geometry"/>
                </mxCell>
                <mxCell id="69" style="edgeStyle=none;html=1;exitX=0.5;exitY=1;exitDx=0;exitDy=0;" parent="1" source="33" edge="1">
                    <mxGeometry relative="1" as="geometry">
                        <mxPoint x="82.25641025641028" y="740" as="targetPoint"/>
                    </mxGeometry>
                </mxCell>
                <mxCell id="33" value="Num 2" style="html=1;strokeWidth=2;shape=manualInput;whiteSpace=wrap;rounded=1;size=26;arcSize=11;" parent="1" vertex="1">
                    <mxGeometry x="32" y="650" width="100" height="60" as="geometry"/>
                </mxCell>
                <mxCell id="91" style="edgeStyle=none;html=1;exitX=0.5;exitY=1;exitDx=0;exitDy=0;exitPerimeter=0;entryX=0.425;entryY=0.257;entryDx=0;entryDy=0;entryPerimeter=0;" parent="1" source="36" target="5" edge="1">
                    <mxGeometry relative="1" as="geometry"/>
                </mxCell>
                <mxCell id="36" value="Add&lt;br&gt;&amp;nbsp; &amp;nbsp; &amp;nbsp; Subtract&lt;br&gt;&amp;nbsp; &amp;nbsp; &amp;nbsp; Muktiply&lt;br&gt;&amp;nbsp; Divide" style="strokeWidth=2;html=1;shape=mxgraph.flowchart.display;whiteSpace=wrap;" parent="1" vertex="1">
                    <mxGeometry x="30" y="190" width="100" height="60" as="geometry"/>
                </mxCell>
                <mxCell id="65" style="edgeStyle=none;html=1;exitX=0.5;exitY=1;exitDx=0;exitDy=0;exitPerimeter=0;entryX=0;entryY=0.5;entryDx=0;entryDy=0;entryPerimeter=0;" parent="1" source="40" target="58" edge="1">
                    <mxGeometry relative="1" as="geometry">
                        <Array as="points">
                            <mxPoint x="80" y="925"/>
                        </Array>
                    </mxGeometry>
                </mxCell>
                <mxCell id="40" value="result &lt;br&gt;=&lt;br&gt;Num 1+Num 2&lt;br&gt;" style="strokeWidth=2;html=1;shape=mxgraph.flowchart.display;whiteSpace=wrap;" parent="1" vertex="1">
                    <mxGeometry x="30" y="750" width="100" height="60" as="geometry"/>
                </mxCell>
                <mxCell id="72" style="edgeStyle=none;html=1;exitX=0.5;exitY=1;exitDx=0;exitDy=0;entryX=0.502;entryY=0.167;entryDx=0;entryDy=0;entryPerimeter=0;" parent="1" source="41" target="42" edge="1">
                    <mxGeometry relative="1" as="geometry"/>
                </mxCell>
                <mxCell id="41" value="Num 1" style="html=1;strokeWidth=2;shape=manualInput;whiteSpace=wrap;rounded=1;size=26;arcSize=11;" parent="1" vertex="1">
                    <mxGeometry x="190" y="560" width="100" height="60" as="geometry"/>
                </mxCell>
                <mxCell id="74" style="edgeStyle=none;html=1;exitX=0.5;exitY=1;exitDx=0;exitDy=0;" parent="1" source="42" edge="1">
                    <mxGeometry relative="1" as="geometry">
                        <mxPoint x="240.20512820512818" y="740" as="targetPoint"/>
                    </mxGeometry>
                </mxCell>
                <mxCell id="42" value="Num 2" style="html=1;strokeWidth=2;shape=manualInput;whiteSpace=wrap;rounded=1;size=26;arcSize=11;" parent="1" vertex="1">
                    <mxGeometry x="190" y="650" width="100" height="60" as="geometry"/>
                </mxCell>
                <mxCell id="64" style="edgeStyle=none;html=1;exitX=0.5;exitY=1;exitDx=0;exitDy=0;exitPerimeter=0;entryX=1;entryY=0.5;entryDx=0;entryDy=0;entryPerimeter=0;" parent="1" source="43" target="58" edge="1">
                    <mxGeometry relative="1" as="geometry">
                        <Array as="points">
                            <mxPoint x="238" y="925"/>
                        </Array>
                    </mxGeometry>
                </mxCell>
                <mxCell id="43" value="result&amp;nbsp;&lt;br&gt;=&lt;br&gt;Num 1-Num 2&lt;br&gt;" style="strokeWidth=2;html=1;shape=mxgraph.flowchart.display;whiteSpace=wrap;" parent="1" vertex="1">
                    <mxGeometry x="188" y="750" width="100" height="60" as="geometry"/>
                </mxCell>
                <mxCell id="76" style="edgeStyle=none;html=1;exitX=0.5;exitY=1;exitDx=0;exitDy=0;entryX=0.499;entryY=0.167;entryDx=0;entryDy=0;entryPerimeter=0;" parent="1" source="44" target="45" edge="1">
                    <mxGeometry relative="1" as="geometry"/>
                </mxCell>
                <mxCell id="44" value="Num 1" style="html=1;strokeWidth=2;shape=manualInput;whiteSpace=wrap;rounded=1;size=26;arcSize=11;" parent="1" vertex="1">
                    <mxGeometry x="339" y="560" width="100" height="60" as="geometry"/>
                </mxCell>
                <mxCell id="78" style="edgeStyle=none;html=1;exitX=0.5;exitY=1;exitDx=0;exitDy=0;" parent="1" source="45" edge="1">
                    <mxGeometry relative="1" as="geometry">
                        <mxPoint x="388.9230769230769" y="740" as="targetPoint"/>
                    </mxGeometry>
                </mxCell>
                <mxCell id="45" value="Num 2" style="html=1;strokeWidth=2;shape=manualInput;whiteSpace=wrap;rounded=1;size=26;arcSize=11;" parent="1" vertex="1">
                    <mxGeometry x="339" y="650" width="100" height="60" as="geometry"/>
                </mxCell>
                <mxCell id="61" style="edgeStyle=none;html=1;exitX=0.5;exitY=1;exitDx=0;exitDy=0;exitPerimeter=0;entryX=0;entryY=0.5;entryDx=0;entryDy=0;entryPerimeter=0;" parent="1" source="46" target="54" edge="1">
                    <mxGeometry relative="1" as="geometry">
                        <Array as="points">
                            <mxPoint x="387" y="925"/>
                        </Array>
                    </mxGeometry>
                </mxCell>
                <mxCell id="46" value="result&amp;nbsp;&lt;br&gt;=&lt;br&gt;Num 1 * Num 2" style="strokeWidth=2;html=1;shape=mxgraph.flowchart.display;whiteSpace=wrap;" parent="1" vertex="1">
                    <mxGeometry x="337" y="750" width="100" height="60" as="geometry"/>
                </mxCell>
                <mxCell id="80" style="edgeStyle=none;html=1;exitX=0.5;exitY=1;exitDx=0;exitDy=0;entryX=0.509;entryY=0.231;entryDx=0;entryDy=0;entryPerimeter=0;" parent="1" source="47" target="48" edge="1">
                    <mxGeometry relative="1" as="geometry"/>
                </mxCell>
                <mxCell id="47" value="Num 1" style="html=1;strokeWidth=2;shape=manualInput;whiteSpace=wrap;rounded=1;size=26;arcSize=11;" parent="1" vertex="1">
                    <mxGeometry x="479" y="560" width="100" height="60" as="geometry"/>
                </mxCell>
                <mxCell id="81" style="edgeStyle=none;html=1;exitX=0.5;exitY=1;exitDx=0;exitDy=0;entryX=0.509;entryY=-0.051;entryDx=0;entryDy=0;entryPerimeter=0;" parent="1" source="48" target="49" edge="1">
                    <mxGeometry relative="1" as="geometry"/>
                </mxCell>
                <mxCell id="48" value="Num 2" style="html=1;strokeWidth=2;shape=manualInput;whiteSpace=wrap;rounded=1;size=26;arcSize=11;" parent="1" vertex="1">
                    <mxGeometry x="479" y="650" width="100" height="60" as="geometry"/>
                </mxCell>
                <mxCell id="87" style="edgeStyle=none;html=1;exitX=0.5;exitY=1;exitDx=0;exitDy=0;exitPerimeter=0;entryX=0.5;entryY=0;entryDx=0;entryDy=0;entryPerimeter=0;" parent="1" source="49" target="54" edge="1">
                    <mxGeometry relative="1" as="geometry"/>
                </mxCell>
                <mxCell id="49" value="result&lt;br&gt;=&lt;br&gt;Num 1 / Num 2" style="strokeWidth=2;html=1;shape=mxgraph.flowchart.display;whiteSpace=wrap;" parent="1" vertex="1">
                    <mxGeometry x="477" y="750" width="100" height="60" as="geometry"/>
                </mxCell>
                <mxCell id="60" style="edgeStyle=none;html=1;exitX=0.5;exitY=1;exitDx=0;exitDy=0;exitPerimeter=0;entryX=1;entryY=0.5;entryDx=0;entryDy=0;entryPerimeter=0;" parent="1" source="50" target="54" edge="1">
                    <mxGeometry relative="1" as="geometry">
                        <Array as="points">
                            <mxPoint x="680" y="925"/>
                        </Array>
                    </mxGeometry>
                </mxCell>
                <mxCell id="50" value="operation error" style="strokeWidth=2;html=1;shape=mxgraph.flowchart.display;whiteSpace=wrap;" parent="1" vertex="1">
                    <mxGeometry x="630" y="750" width="100" height="60" as="geometry"/>
                </mxCell>
                <mxCell id="52" value="End" style="strokeWidth=2;html=1;shape=mxgraph.flowchart.terminator;whiteSpace=wrap;" parent="1" vertex="1">
                    <mxGeometry x="279" y="1110" width="100" height="30" as="geometry"/>
                </mxCell>
                <mxCell id="59" style="edgeStyle=none;html=1;exitX=0.5;exitY=1;exitDx=0;exitDy=0;exitPerimeter=0;entryX=1;entryY=0.5;entryDx=0;entryDy=0;entryPerimeter=0;" parent="1" source="54" target="56" edge="1">
                    <mxGeometry relative="1" as="geometry">
                        <Array as="points">
                            <mxPoint x="529" y="1065"/>
                        </Array>
                    </mxGeometry>
                </mxCell>
                <mxCell id="54" value="" style="strokeWidth=2;html=1;shape=mxgraph.flowchart.start_2;whiteSpace=wrap;fillColor=#e51400;fontColor=#ffffff;strokeColor=#B20000;" parent="1" vertex="1">
                    <mxGeometry x="514" y="910" width="30" height="30" as="geometry"/>
                </mxCell>
                <mxCell id="55" style="edgeStyle=none;html=1;exitX=0.5;exitY=1;exitDx=0;exitDy=0;exitPerimeter=0;entryX=0.5;entryY=0;entryDx=0;entryDy=0;entryPerimeter=0;" parent="1" source="56" target="52" edge="1">
                    <mxGeometry relative="1" as="geometry"/>
                </mxCell>
                <mxCell id="56" value="" style="strokeWidth=2;html=1;shape=mxgraph.flowchart.start_2;whiteSpace=wrap;fillColor=#6a00ff;fontColor=#ffffff;strokeColor=#3700CC;" parent="1" vertex="1">
                    <mxGeometry x="314" y="1050" width="30" height="30" as="geometry"/>
                </mxCell>
                <mxCell id="57" style="edgeStyle=none;html=1;exitX=0.5;exitY=1;exitDx=0;exitDy=0;exitPerimeter=0;entryX=0;entryY=0.5;entryDx=0;entryDy=0;entryPerimeter=0;" parent="1" source="58" target="56" edge="1">
                    <mxGeometry relative="1" as="geometry">
                        <Array as="points">
                            <mxPoint x="155" y="1065"/>
                        </Array>
                    </mxGeometry>
                </mxCell>
                <mxCell id="58" value="" style="strokeWidth=2;html=1;shape=mxgraph.flowchart.start_2;whiteSpace=wrap;fillColor=#0050ef;fontColor=#ffffff;strokeColor=#001DBC;" parent="1" vertex="1">
                    <mxGeometry x="140" y="910" width="30" height="30" as="geometry"/>
                </mxCell>
                <mxCell id="82" value="True" style="text;html=1;resizable=0;autosize=1;align=center;verticalAlign=middle;points=[];fillColor=#60a917;strokeColor=#2D7600;rounded=0;fontColor=#ffffff;" parent="1" vertex="1">
                    <mxGeometry x="42" y="540" width="40" height="20" as="geometry"/>
                </mxCell>
                <mxCell id="83" value="True" style="text;html=1;resizable=0;autosize=1;align=center;verticalAlign=middle;points=[];fillColor=#60a917;strokeColor=#2D7600;rounded=0;fontColor=#ffffff;" parent="1" vertex="1">
                    <mxGeometry x="197" y="540" width="40" height="20" as="geometry"/>
                </mxCell>
                <mxCell id="84" value="True" style="text;html=1;resizable=0;autosize=1;align=center;verticalAlign=middle;points=[];fillColor=#60a917;strokeColor=#2D7600;rounded=0;fontColor=#ffffff;" parent="1" vertex="1">
                    <mxGeometry x="339" y="540" width="40" height="20" as="geometry"/>
                </mxCell>
                <mxCell id="85" value="True" style="text;html=1;resizable=0;autosize=1;align=center;verticalAlign=middle;points=[];fillColor=#60a917;strokeColor=#2D7600;rounded=0;fontColor=#ffffff;" parent="1" vertex="1">
                    <mxGeometry x="479" y="540" width="40" height="20" as="geometry"/>
                </mxCell>
            </root>
        </mxGraphModel>
    </diagram>
</mxfile>